<svg width="64" height="62" viewBox="0 0 64 62" fill="none" xmlns="http://www.w3.org/2000/svg">
<g filter="url(#filter0_d_2_166)">
<path d="M31 0C15.0078 0 2 13.0078 2 29C2 44.9922 15.0078 58 31 58C46.9922 58 60 44.9922 60 29C60 13.0078 46.9922 0 31 0ZM31 2C45.8867 2 58 14.1133 58 29C58 43.8867 45.8867 56 31 56C16.1133 56 4 43.8867 4 29C4 14.1133 16.1133 2 31 2ZM31 6C18.3164 6 8 16.3164 8 29C8 41.6836 18.3164 52 31 52C43.6836 52 54 41.6836 54 29C54 21.8945 50.793 15.3008 45.1992 10.9062C44.7656 10.5664 44.1406 10.6406 43.7969 11.0742C43.457 11.5078 43.5312 12.1367 43.9648 12.4805C49.0703 16.4922 52 22.5156 52 29C52 40.5781 42.5781 50 31 50C19.4219 50 10 40.5781 10 29C10 17.4219 19.4219 8 31 8C32.0273 8 33.0586 8.07422 34.0625 8.22266C34.6133 8.30469 35.1211 7.92578 35.1992 7.37891C35.2773 6.83203 34.9023 6.32422 34.3555 6.24219C33.2539 6.08203 32.125 6 31 6ZM38.5312 7.34375C38.1445 7.36328 37.7852 7.60938 37.6406 8C37.4531 8.51562 37.7188 9.08984 38.2383 9.28125C39.0195 9.56641 39.7969 9.91016 40.5469 10.293C40.6953 10.3672 40.8516 10.4023 41.0039 10.4023C41.3672 10.4023 41.7188 10.2031 41.8945 9.85547C42.1445 9.36328 41.9492 8.76172 41.457 8.51172C40.6367 8.08984 39.7852 7.71875 38.9258 7.40234C38.7969 7.35547 38.6641 7.33594 38.5312 7.34375ZM31 12C30.4492 12 30 12.4492 30 13V15C30 15.5508 30.4492 16 31 16C31.5508 16 32 15.5508 32 15V13C32 12.4492 31.5508 12 31 12ZM36.9805 13.168C36.5898 13.1719 36.2227 13.4062 36.0664 13.793L35.3164 15.6445C35.1094 16.1562 35.3555 16.7422 35.8711 16.9492C35.9922 16.9961 36.1211 17.0195 36.2461 17.0195C36.6406 17.0195 37.0156 16.7852 37.1719 16.3945L37.9219 14.5391C38.1289 14.0273 37.8789 13.4453 37.3672 13.2383C37.2383 13.1875 37.1094 13.1641 36.9805 13.168ZM42.0977 16.4883C41.8398 16.4961 41.5898 16.5977 41.3945 16.7969L40.0039 18.2344C39.6211 18.6328 39.6328 19.2656 40.0312 19.6484C40.2227 19.8359 40.4727 19.9297 40.7227 19.9297C40.9883 19.9297 41.2461 19.8242 41.4414 19.625L42.832 18.1875C43.2188 17.7891 43.207 17.1562 42.8125 16.7695C42.6133 16.5781 42.3555 16.4844 42.0977 16.4883ZM31 18C30.4492 18 30 18.4492 30 19V27.2773C29.4062 27.625 29 28.2617 29 29C29 30.1016 29.8984 31 31 31C31.1797 31 31.3477 30.9688 31.5117 30.9258L37.793 37.207C37.9883 37.4023 38.2422 37.5 38.5 37.5C38.7578 37.5 39.0117 37.4023 39.207 37.207C39.5977 36.8164 39.5977 36.1836 39.207 35.793L32.9258 29.5117C32.9688 29.3477 33 29.1797 33 29C33 28.2617 32.5938 27.625 32 27.2773V19C32 18.4492 31.5508 18 31 18ZM45.5977 21.4922C45.4688 21.4961 45.3359 21.5234 45.2109 21.5781L43.3828 22.3906C42.8789 22.6172 42.6523 23.207 42.875 23.7148C43.043 24.0859 43.4062 24.3086 43.7891 24.3086C43.9258 24.3086 44.0625 24.2773 44.1953 24.2188L46.0234 23.4062C46.5273 23.1797 46.7539 22.5898 46.5312 22.0859C46.3594 21.707 45.9883 21.4844 45.5977 21.4922ZM15 28C14.4492 28 14 28.4492 14 29C14 29.5508 14.4492 30 15 30H17C17.5508 30 18 29.5508 18 29C18 28.4492 17.5508 28 17 28H15ZM45 28C44.4492 28 44 28.4492 44 29C44 29.5508 44.4492 30 45 30H47C47.5508 30 48 29.5508 48 29C48 28.4492 47.5508 28 47 28H45ZM43.9648 33.2461C43.5742 33.25 43.207 33.4844 43.0508 33.8711C42.8477 34.3828 43.0938 34.9648 43.6055 35.1719L45.4609 35.9219C45.582 35.9727 45.7109 35.9961 45.832 35.9961C46.2305 35.9961 46.6055 35.7578 46.7617 35.3672C46.9688 34.8555 46.7227 34.2734 46.207 34.0664L44.3555 33.3164C44.2266 33.2656 44.0938 33.2422 43.9648 33.2461ZM41.0547 37.7227C40.8008 37.7305 40.543 37.832 40.3516 38.0312C40.1992 38.1875 40.1289 38.3867 40.0977 38.5859C39.9297 38.9531 39.9883 39.4023 40.293 39.707L41.6055 41.0195C41.8008 41.2148 42.0547 41.3125 42.3125 41.3125C42.5703 41.3125 42.8242 41.2148 43.0195 41.0195C43.0547 40.9844 43.0742 40.9336 43.1055 40.8945C43.1445 40.8633 43.1914 40.8477 43.2305 40.8086C43.6133 40.4102 43.6016 39.7773 43.2031 39.3945L41.7656 38.0039C41.5664 37.8125 41.3086 37.7188 41.0547 37.7227ZM31 42C30.4492 42 30 42.4492 30 43V45C30 45.5508 30.4492 46 31 46C31.5508 46 32 45.5508 32 45V43C32 42.4492 31.5508 42 31 42Z" fill="black"/>
</g>
<defs>
<filter id="filter0_d_2_166" x="-2" y="0" width="66" height="66" filterUnits="userSpaceOnUse" color-interpolation-filters="sRGB">
<feFlood flood-opacity="0" result="BackgroundImageFix"/>
<feColorMatrix in="SourceAlpha" type="matrix" values="0 0 0 0 0 0 0 0 0 0 0 0 0 0 0 0 0 0 127 0" result="hardAlpha"/>
<feOffset dy="4"/>
<feGaussianBlur stdDeviation="2"/>
<feComposite in2="hardAlpha" operator="out"/>
<feColorMatrix type="matrix" values="0 0 0 0 0 0 0 0 0 0 0 0 0 0 0 0 0 0 0.25 0"/>
<feBlend mode="normal" in2="BackgroundImageFix" result="effect1_dropShadow_2_166"/>
<feBlend mode="normal" in="SourceGraphic" in2="effect1_dropShadow_2_166" result="shape"/>
</filter>
</defs>
</svg>
